# xmcd
#
# Track frame offsets: 
#        150
#        27983
#        61013
#        81210
#        109425
#        145963
#        180145
#        210205
#        254858
#        280685
#        314188
#
# Disc length: 4540 seconds
#
# Revision: 7
# Processed by: cddbd v1.5.2PL0 Copyright (c) Steve Scherf et al.
# Submitted via: ExactAudioCopy v0.99pb4
#
DISCID=9d11ba0b
DTITLE=Grateful Dead - Postcards of the Hanging
DYEAR=2002
DGENRE=Rock
TTITLE0=When I Paint My Masterpiece
TTITLE1=She Belongs to Me
TTITLE2=Just Like Tom Thumb's Blues
TTITLE3=Maggie's Farm
TTITLE4=Stuck Inside of Mobile with the Memphis Blues Again
TTITLE5=It Takes a Lot to Laugh, It Takes a Train to Cry
TTITLE6=Ballad of a Thin Man
TTITLE7=Desolation Row
TTITLE8=All Along the Watchtower
TTITLE9=It's All Over Now Baby Blue
TTITLE10=Man of Peace
EXTD=
EXTT0=
EXTT1=
EXTT2=
EXTT3=
EXTT4=
EXTT5=
EXTT6=
EXTT7=
EXTT8=
EXTT9=
EXTT10=
PLAYORDER=
